{"glyphs":{":":{"x_min":0,"x_max":324,"ha":324,"o":"m 11 70 b 56 70 137 194 81 194 b 20 194 -39 70 11 70 z m 137 277 b 182 277 263 401 207 401 b 146 401 87 277 137 277 z"},"$":{"x_min":0,"x_max":516,"ha":516,"o":"m 374 485 b 430 485 487 464 502 455 l 558 516 b 558 516 529 532 479 542 l 540 632 l 450 632 l 395 550 b 260 548 99 455 99 355 b 99 231 338 247 338 196 b 338 145 286 104 193 104 b 99 104 17 163 17 163 l -31 94 b -21 87 14 71 63 59 l -1 -35 l 88 -35 l 144 47 b 152 47 160 46 169 46 b 284 46 426 134 426 217 b 426 305 183 285 183 367 b 183 450 296 485 374 485 z"},"?":{"x_min":0,"x_max":489,"ha":489,"o":"m 99 140 b 31 140 -35 1 21 1 b 71 1 162 140 99 140 z m 110 197 b 110 256 484 449 484 600 b 484 655 444 720 348 720 b 219 720 119 618 119 540 b 119 523 165 492 182 492 b 186 492 188 494 188 498 b 188 596 278 676 339 676 b 369 676 392 656 392 608 b 392 455 60 275 60 191 b 61 175 70 162 87 162 b 101 162 118 169 136 180 l 136 199 b 128 194 121 192 116 192 b 114 192 111 193 110 197 z"},"<":{"x_min":0,"x_max":374,"ha":374,"o":"m 238 137 l 89 280 l 324 432 l 348 501 l 59 323 l 29 270 l 218 82 z"},"'":{"x_min":0,"x_max":166,"ha":166,"o":"m 16 536 b 16 536 242 716 117 716 b 38 716 0 536 0 536 z"},"=":{"x_min":0,"x_max":468,"ha":468,"o":"m 408 331 b 418 348 428 366 438 384 l 115 384 l 84 331 z m 343 196 b 353 213 363 231 373 249 l 50 249 l 19 196 z"},"a":{"x_min":0,"x_max":446,"ha":446,"o":"m 139 54 b 115 54 265 295 327 389 l 241 389 b 241 414 234 445 203 445 b 68 445 -151 204 -151 90 b -151 13 -109 0 -92 0 b -56 0 -7 39 40 88 b 37 79 35 72 35 65 b 35 9 68 0 86 0 b 200 0 446 278 446 278 l 446 318 b 446 318 200 54 139 54 z m -21 86 b -126 86 136 417 203 417 b 213 417 216 404 216 389 b 216 368 202 340 183 308 b 152 268 9 86 -21 86 z"},"L":{"x_min":0,"x_max":621,"ha":621,"o":"m 152 -62 b 91 -62 53 -38 4 -20 b 67 5 138 120 246 279 b 477 356 697 572 697 685 b 697 721 681 750 626 750 b 451 750 292 537 158 333 b 146 332 134 331 123 331 b 80 331 60 365 60 399 b 61 530 293 658 293 658 l 281 677 b 281 677 0 526 -1 377 b -1 259 89 252 89 252 l 106 252 b 7 98 -44 0 -103 0 b -191 0 -214 -77 -215 -92 b -215 -98 -213 -105 -206 -105 b -194 -105 -193 -82 -133 -82 b 22 -82 33 -116 128 -116 b 298 -116 621 278 621 278 l 621 318 b 514 203 289 -62 152 -62 z m 631 717 b 658 717 660 700 660 685 b 659 601 485 456 314 380 b 434 556 554 717 631 717 z"},"3":{"x_min":0,"x_max":510,"ha":510,"o":"m 514 519 b 514 574 480 599 416 599 b 260 599 122 485 122 420 b 122 393 159 366 179 366 b 186 366 191 369 191 377 b 191 476 291 556 358 556 b 392 556 417 536 417 488 b 417 364 184 312 186 274 b 193 274 214 286 258 286 b 298 286 329 268 329 215 b 329 113 226 32 146 33 b 96 34 54 67 54 149 b 54 176 64 201 74 219 b 80 230 80 236 74 236 b 70 236 64 234 55 229 b 18 206 -32 162 -32 95 b -32 49 11 -7 102 -7 b 338 -7 428 143 428 237 b 428 332 339 336 339 336 b 339 336 514 423 514 519 z"},";":{"x_min":0,"x_max":342,"ha":342,"o":"m -45 -49 b -45 -49 181 130 55 130 b -24 130 -61 -49 -61 -49 z m 125 258 b 184 258 290 421 216 421 b 137 421 60 258 125 258 z"},"J":{"x_min":0,"x_max":595,"ha":595,"o":"m 707 747 b 285 721 2 461 -1 321 b -2 269 26 233 89 233 b 226 233 418 484 418 484 l 387 484 b 387 484 197 254 100 254 b 89 254 84 261 84 274 b 85 411 423 702 580 702 b 570 692 548 658 548 658 l 236 156 b 208 115 180 76 153 42 b 46 5 -23 -13 -23 -81 b -23 -118 4 -149 58 -149 b 99 -149 180 -59 264 56 b 374 101 499 165 595 278 l 595 318 b 486 192 400 144 294 97 b 307 117 321 136 334 156 l 613 604 b 642 651 671 680 722 718 b 739 731 730 747 709 747 z m 18 -87 b 12 -87 9 -82 9 -73 b 9 -43 54 -22 122 3 b 77 -51 40 -87 18 -87 z"},"V":{"x_min":0,"x_max":909,"ha":909,"o":"m 238 -65 b 485 -65 922 340 923 610 b 923 692 866 712 828 712 b 770 712 696 637 696 637 l 713 624 b 713 624 761 663 806 663 b 833 663 835 633 835 633 b 834 358 435 -11 291 -11 b 283 -11 273 -4 285 16 b 285 16 656 613 656 676 b 657 716 637 749 571 749 b 114 749 -149 233 90 233 b 227 233 419 484 419 484 l 388 484 b 388 484 198 254 101 254 b 18 254 287 717 546 717 b 570 717 578 704 578 687 b 578 630 203 39 203 39 b 176 -3 186 -65 238 -65 z"},"\"":{"x_min":0,"x_max":292,"ha":292,"o":"m 16 536 b 16 536 242 716 117 716 b 38 716 0 536 0 536 z m 151 536 b 151 536 376 716 251 716 b 172 716 135 536 135 536 z"},"7":{"x_min":0,"x_max":387,"ha":387,"o":"m 463 594 b 423 597 371 599 300 599 b 56 599 64 462 83 462 b 95 462 124 516 237 516 b 289 516 324 507 346 497 b 331 485 4 234 4 96 b 4 24 50 -7 63 -7 b 77 -7 66 4 66 16 b 66 179 459 531 463 594 z"},"S":{"x_min":0,"x_max":594,"ha":594,"o":"m 646 738 b 645 744 641 749 635 749 b 469 749 313 593 313 418 b 313 389 315 363 318 338 l 78 1 b 47 81 160 280 249 280 l 253 307 b 70 307 -76 23 43 -48 l -29 -149 l 14 -149 l 76 -61 b 87 -64 99 -65 112 -65 b 332 -65 429 107 429 220 b 429 309 417 348 415 414 l 639 728 b 645 728 647 733 646 738 z m 419 479 b 438 591 519 679 586 713 z m 326 224 b 326 142 244 -31 130 -31 b 119 -31 109 -29 102 -25 l 323 286 b 325 266 326 246 326 224 z"},"}":{"x_min":0,"x_max":311,"ha":311,"o":"m -254 -188 b 64 -188 24 210 261 240 b 270 241 287 247 285 263 b 263 406 403 575 403 675 b 403 752 360 788 316 804 l 303 782 b 303 782 344 774 344 718 b 344 603 202 475 202 341 b 202 303 226 272 226 272 b -51 272 -37 -176 -254 -176 z"},"Z":{"x_min":0,"x_max":655,"ha":655,"o":"m 674 748 b 646 738 619 735 592 735 b 533 735 473 750 397 750 b 229 750 218 634 218 634 l 235 634 b 235 634 250 654 316 654 b 400 654 432 634 510 634 b 529 634 547 637 563 642 b 490 574 393 513 284 457 b 176 440 114 358 114 358 l 140 358 b 140 358 185 396 254 396 b 354 396 394 318 394 237 b 394 74 250 -121 96 -121 b 44 -121 16 -74 16 -35 b 16 97 136 196 136 196 l 104 205 b 104 205 -27 107 -28 -22 b -28 -89 21 -148 95 -148 b 369 -148 494 114 495 251 b 495 319 459 443 347 458 b 608 598 697 749 697 749 z"},"x":{"x_min":0,"x_max":468,"ha":468,"o":"m 217 70 b 212 70 201 73 201 93 l 201 271 b 269 351 326 418 346 418 b 357 418 355 411 361 411 b 367 411 363 446 332 446 b 313 446 263 392 201 324 l 201 390 b 201 425 182 446 159 446 b 108 446 0 318 0 318 l 0 278 b 0 279 77 373 91 373 b 96 373 103 372 103 361 l 103 217 b 18 127 -70 44 -120 44 b -138 44 -134 50 -140 50 b -156 50 -144 1 -87 1 b -45 1 28 72 103 156 l 103 51 b 103 14 133 1 153 1 b 235 1 468 278 468 278 l 468 318 b 468 318 263 70 217 70 z"},")":{"x_min":0,"x_max":311,"ha":311,"o":"m -232 -103 b -19 -19 263 248 263 571 b 263 636 250 685 234 719 l 204 719 b 205 714 205 710 205 705 b 205 240 -155 -18 -303 -103 z"},"&":{"x_min":0,"x_max":659,"ha":659,"o":"m 102 322 b 98 314 93 307 89 299 l 499 369 l 511 392 z m 475 103 l 487 125 l 412 112 b 408 105 404 97 400 90 z m 279 89 b 279 142 370 281 370 300 b 370 315 360 317 348 317 b 322 312 259 229 226 183 b 262 246 293 301 298 308 l 257 301 b 254 297 238 269 216 230 b 188 197 117 116 96 112 b 86 111 150 221 176 264 l 140 258 b 139 268 137 279 123 278 b 66 269 -27 153 -27 106 b -27 87 -22 73 -2 73 b 13 76 34 96 54 119 b 53 115 52 112 52 109 b 52 92 58 86 74 86 b 103 91 152 141 187 180 b 172 153 155 125 140 97 l 183 109 l 181 105 b 181 105 312 290 327 288 b 327 274 242 151 242 98 b 242 93 243 88 244 83 b 235 82 227 81 218 79 l -38 35 b -42 28 -47 20 -51 13 l 205 57 b 215 58 233 61 254 64 b 266 50 288 44 308 44 b 338 44 367 56 367 70 b 367 85 348 90 319 90 b 307 90 294 89 279 88 z m 25 114 b -12 114 95 262 123 267 b 128 268 129 262 129 256 b 129 227 41 116 28 114 z m 290 69 b 305 71 318 72 329 72 b 340 72 347 70 347 67 b 347 64 336 61 323 61 b 312 61 299 63 290 69 z m 430 183 b 429 180 428 176 428 174 b 428 152 442 152 458 152 b 473 154 477 161 477 164 b 477 167 472 165 472 174 b 472 194 582 391 607 433 l 565 426 l 514 334 b 511 342 507 343 499 343 b 439 332 349 215 349 171 b 349 153 353 137 374 137 b 389 140 410 160 430 183 z m 500 331 b 504 332 505 327 505 321 b 505 295 429 183 404 178 l 401 178 b 365 178 472 327 500 331 z"},"_":{"x_min":0,"x_max":553,"ha":553,"o":"m 309 -52 b 319 -35 329 -17 339 1 l -86 1 l -117 -52 z"},"v":{"x_min":0,"x_max":378,"ha":378,"o":"m -111 139 b -111 139 -197 -1 -100 -1 b -3 -1 389 348 389 504 b 389 540 345 559 319 559 b 308 559 300 556 300 549 b 300 543 308 544 308 523 b 308 416 32 63 -39 63 b -54 63 -51 79 -35 105 b 65 267 163 426 175 445 l 78 445 b 69 430 -16 293 -111 139 z"},"O":{"x_min":0,"x_max":650,"ha":650,"o":"m 554 635 b 554 386 333 -32 137 -32 b 105 -32 98 -10 98 11 b 99 298 414 725 543 725 l 554 750 b 267 750 0 292 0 95 b 0 -10 57 -65 151 -65 b 375 -65 648 370 648 615 b 648 690 599 707 549 707 b 495 707 429 639 429 639 l 444 627 b 444 627 487 662 528 662 b 552 662 554 635 554 635 z"},"(":{"x_min":0,"x_max":311,"ha":311,"o":"m 492 719 b 279 635 -3 367 -3 45 b -3 -21 10 -69 25 -103 l 56 -103 b 55 -99 55 -94 55 -89 b 55 376 414 634 563 719 z"},"C":{"x_min":0,"x_max":693,"ha":693,"o":"m 607 393 b 607 393 833 750 612 750 b 295 750 0 245 0 27 b 0 -88 63 -149 167 -149 b 348 -149 693 278 693 278 l 693 318 b 693 318 337 -84 183 -84 b 130 -84 109 -48 109 9 b 110 249 457 723 599 723 b 717 723 525 393 525 393 z"},"W":{"x_min":0,"x_max":1086,"ha":1086,"o":"m 998 750 b 939 750 866 675 866 675 l 883 663 b 883 663 930 701 976 701 b 1002 701 1004 671 1004 671 b 1004 396 682 -11 538 -11 b 530 -11 520 -4 532 16 b 619 159 868 584 890 618 l 792 618 b 781 602 695 453 602 295 b 545 231 326 -11 289 -11 b 281 -11 271 -4 283 16 b 283 16 656 613 656 676 b 657 716 637 749 571 749 b 114 749 -149 233 90 233 b 227 233 419 484 419 484 l 388 484 b 388 484 198 254 101 254 b 18 254 287 717 546 717 b 570 717 578 704 578 687 b 578 630 201 39 201 39 b 175 -3 184 -65 236 -65 b 313 -65 430 50 514 146 b 491 108 469 72 449 39 b 423 -3 433 -65 485 -65 b 732 -65 1092 378 1092 649 b 1092 731 1036 750 998 750 z"},"A":{"x_min":0,"x_max":1247,"ha":1247,"o":"m 872 -3 b 864 -3 854 4 866 24 b 953 167 1285 704 1308 738 b 1282 745 1257 748 1232 748 b 1010 748 810 498 620 266 l 465 266 b 455 248 444 230 434 213 l 576 213 b 429 35 287 -118 145 -118 b 88 -118 80 -80 80 -50 b 80 32 221 214 332 214 b 346 214 344 210 350 210 b 359 210 362 251 311 251 b 146 251 0 78 0 -30 b 0 -63 21 -149 139 -149 b 328 -149 514 22 683 213 l 885 213 b 846 150 812 92 784 47 b 758 5 767 -57 819 -57 b 933 -57 1247 278 1247 278 l 1247 318 b 1247 318 933 -3 872 -3 z m 729 266 b 921 490 1086 722 1200 723 b 1163 663 1032 452 918 266 z"},"f":{"x_min":0,"x_max":281,"ha":281,"o":"m 48 206 b 45 212 41 217 37 221 b 155 412 269 597 281 615 l 184 615 b 174 600 66 425 -47 242 b -52 244 -57 245 -62 245 b -84 245 -101 228 -101 206 b -101 194 -96 184 -87 177 b -125 114 -164 53 -196 0 b -249 -87 -265 -152 -265 -187 b -265 -240 -238 -251 -214 -251 b -54 -251 79 14 63 157 b 108 163 199 188 281 278 l 281 318 b 206 232 106 210 48 206 z m -187 -211 b -203 -211 -175 -130 -100 -1 b -74 41 -46 87 -17 134 b -34 11 -138 -211 -187 -211 z"},"Q":{"x_min":0,"x_max":650,"ha":650,"o":"m 648 615 b 648 701 583 707 549 707 b 495 707 429 639 429 639 l 444 627 b 444 627 487 662 528 662 b 552 662 554 635 554 635 b 554 386 333 -32 137 -32 b 105 -32 98 -10 98 11 b 99 298 414 725 543 725 l 554 750 b 267 750 0 292 0 95 b 0 21 28 -28 78 -51 b 47 -71 33 -102 33 -102 l 57 -102 b 57 -102 72 -80 94 -80 b 121 -80 128 -149 180 -149 b 278 -149 317 -54 317 -54 l 300 -54 b 300 -54 270 -102 233 -102 b 212 -102 201 -81 187 -61 b 402 -20 648 383 648 615 z"},"w":{"x_min":0,"x_max":578,"ha":578,"o":"m 505 549 b 505 543 513 544 513 523 b 513 416 237 63 166 63 b 151 63 154 79 170 105 b 270 267 368 426 380 445 l 283 445 b 277 436 241 378 191 297 b 120 202 29 95 -19 95 b -24 95 -29 96 -29 104 b -29 114 -23 123 -23 123 b 82 295 163 425 176 445 l 79 445 b 67 427 -41 252 -137 96 b -158 62 -149 -1 -96 -1 b -51 -1 27 70 99 146 b 101 148 96 142 94 139 b 94 139 8 -1 105 -1 b 202 -1 594 348 594 504 b 594 540 550 559 524 559 b 513 559 505 556 505 549 z"},"-":{"x_min":0,"x_max":410,"ha":410,"o":"m 274 263 b 284 280 294 298 304 316 l 81 316 l 50 263 z"},"E":{"x_min":0,"x_max":708,"ha":708,"o":"m 459 363 b 329 363 150 204 150 39 b 150 5 169 -5 181 -5 b 187 -5 191 -2 191 1 b 191 6 187 5 187 18 b 187 130 373 284 455 284 b 605 284 416 -112 217 -112 b 156 -112 95 -69 95 33 b 95 227 300 387 424 419 b 433 422 436 430 428 434 b 409 444 391 463 391 498 b 391 585 519 725 598 725 b 698 725 529 534 529 534 l 558 534 b 558 534 755 749 596 749 b 420 749 305 594 305 502 b 305 459 318 437 329 425 b 160 385 0 187 0 50 b 0 -104 92 -149 186 -149 b 511 -149 731 363 459 363 z"},"s":{"x_min":0,"x_max":348,"ha":348,"o":"m 79 61 b 139 161 141 342 225 453 b 235 466 227 480 210 480 b 205 480 200 479 194 477 b 92 439 0 318 0 318 l 0 278 b 33 322 80 372 80 372 b 40 306 39 54 -43 54 b -79 54 -85 93 -103 93 b -124 93 -154 79 -154 40 b -154 23 -123 -10 -43 -10 b -20 -10 0 -6 16 2 b 145 18 348 278 348 278 l 348 318 b 348 318 166 99 79 61 z"},">":{"x_min":0,"x_max":374,"ha":374,"o":"m 139 446 l 288 303 l 53 151 l 29 82 l 318 260 l 348 313 l 159 501 z"},"l":{"x_min":0,"x_max":264,"ha":264,"o":"m -96 0 b 18 0 264 278 264 278 l 264 318 b 264 318 18 54 -43 54 b -51 54 -61 61 -49 81 b 38 224 330 700 353 734 l 256 734 b 239 709 -9 306 -131 104 b -157 62 -148 0 -96 0 z"},"8":{"x_min":0,"x_max":512,"ha":512,"o":"m 518 502 b 518 571 455 594 396 594 b 249 594 113 490 113 383 b 113 329 146 309 178 304 b 178 304 -33 261 -33 96 b -33 31 21 -2 93 -2 b 308 -2 442 150 442 257 b 442 310 401 334 359 345 b 432 375 518 430 518 502 z m 148 52 b 130 52 63 55 63 131 b 63 207 149 292 242 292 b 280 292 337 274 337 218 b 337 145 242 52 148 52 z m 281 348 b 243 348 200 355 200 400 b 200 483 304 553 364 553 b 387 553 432 546 432 488 b 432 404 344 348 281 348 z"},"\\":{"x_min":0,"x_max":310,"ha":310,"o":"m -62 684 l -129 684 l 349 -91 l 416 -91 z"},"e":{"x_min":0,"x_max":387,"ha":387,"o":"m 34 58 b 11 58 2 72 2 94 b 2 117 13 149 31 184 b 110 185 299 245 299 387 b 299 411 279 445 235 445 b 74 445 -101 238 -101 111 b -101 34 -56 0 4 0 b 155 0 387 278 387 278 l 387 318 b 387 318 166 58 34 58 z m 226 405 b 233 405 235 400 235 390 b 235 317 133 209 43 207 b 96 301 187 405 226 405 z"},"b":{"x_min":0,"x_max":471,"ha":471,"o":"m 181 86 b 266 168 336 291 336 368 b 336 415 313 445 280 445 b 232 445 186 425 145 396 b 197 480 252 571 294 639 b 325 690 348 725 354 734 l 256 734 b 240 708 83 454 -40 254 b -83 184 -85 126 -85 104 b -85 42 -55 0 19 0 b 52 0 90 15 126 40 b 132 40 138 39 145 39 b 289 39 471 278 471 278 l 471 318 b 471 318 299 100 181 86 z m 7 70 b -26 70 -12 133 27 204 b 39 224 52 246 66 268 b 119 345 192 415 255 415 b 267 415 271 406 271 397 b 271 359 191 216 109 132 b 105 134 100 134 96 134 b 74 134 57 117 57 96 b 57 93 57 91 58 89 b 40 77 22 70 7 70 z"},"%":{"x_min":0,"x_max":602,"ha":602,"o":"m 541 608 l -7 -20 l 61 -20 l 610 608 z m 498 314 b 384 314 246 172 246 59 b 246 -3 271 -20 298 -20 b 387 -20 550 150 550 246 b 550 297 521 314 498 314 z m 317 14 b 308 14 302 18 302 40 b 302 141 410 285 483 285 b 485 285 496 282 496 266 b 496 187 351 14 317 14 z m 322 608 b 208 608 69 464 69 351 b 69 289 95 272 122 272 b 211 272 374 442 374 538 b 374 591 345 608 322 608 z m 141 307 b 132 307 126 312 126 332 b 126 434 234 578 307 578 b 309 578 320 575 320 560 b 320 481 175 307 141 307 z"},"m":{"x_min":0,"x_max":657,"ha":657,"o":"m 380 48 b 338 48 556 346 556 394 b 556 418 544 445 503 445 b 449 445 324 304 243 205 b 297 293 346 379 346 394 b 346 418 335 445 294 445 b 233 445 84 269 7 172 b 92 309 166 429 177 445 l 79 445 b 67 427 -73 200 -195 0 l -98 0 b -98 0 205 390 241 390 b 244 390 245 388 245 385 b 245 366 17 0 17 0 l 114 0 b 114 0 119 8 127 21 b 190 101 419 390 450 390 b 453 390 454 389 454 385 b 454 350 276 115 276 59 b 276 3 309 -6 327 -6 b 441 -6 657 278 657 278 l 657 318 b 657 318 441 48 380 48 z"},"#":{"x_min":0,"x_max":668,"ha":668,"o":"m 580 304 l 447 304 l 527 438 l 465 438 l 385 304 l 282 304 l 362 438 l 300 438 l 220 304 l 99 304 l 74 260 l 194 260 l 144 178 l 23 178 l -2 134 l 118 134 l 39 1 l 101 1 l 180 134 l 284 134 l 204 1 l 266 1 l 346 134 l 482 134 l 507 178 l 372 178 l 421 260 l 555 260 z m 206 178 l 256 260 l 359 260 l 310 178 z"},",":{"x_min":0,"x_max":188,"ha":188,"o":"m -84 -111 b -84 -111 142 68 16 68 b -63 68 -100 -111 -100 -111 z"},"n":{"x_min":0,"x_max":447,"ha":447,"o":"m 170 48 b 128 48 346 346 346 394 b 346 418 334 445 293 445 b 232 445 83 269 7 172 b 91 309 165 429 176 445 l 78 445 b 66 427 -74 200 -196 0 l -99 0 b -99 0 204 390 240 390 b 243 390 244 388 244 385 b 244 350 66 115 66 59 b 66 3 99 -6 117 -6 b 231 -6 447 279 447 279 l 447 318 b 447 318 231 48 170 48 z"},"h":{"x_min":0,"x_max":448,"ha":448,"o":"m 170 47 b 128 47 346 345 346 393 b 346 417 334 444 293 444 b 232 444 84 268 7 172 b 149 402 343 716 355 734 l 257 734 b 245 716 -74 199 -196 -1 l -99 -1 b -99 -1 204 389 240 389 b 243 389 244 387 244 384 b 244 349 66 114 66 58 b 66 2 99 -7 117 -7 b 231 -7 448 278 448 278 l 448 318 b 448 318 231 47 170 47 z"},"z":{"x_min":0,"x_max":396,"ha":396,"o":"m 347 444 b 331 435 317 430 305 430 b 228 430 199 455 115 455 b 41 455 21 390 21 378 b 21 373 23 367 29 367 b 39 367 40 387 90 387 l 257 387 b 257 387 -145 152 -145 28 b -145 15 -138 11 -126 11 b -110 20 -96 25 -83 25 b -7 25 35 0 119 0 b 193 0 214 85 214 97 b 214 102 211 108 204 108 b 195 108 190 100 183 93 b 176 87 144 68 79 68 l -40 68 b 70 177 203 282 360 413 b 372 423 366 446 354 446 b 352 446 350 446 347 444 z"},"B":{"x_min":0,"x_max":848,"ha":848,"o":"m 705 749 b 206 749 -164 233 76 233 b 213 233 405 484 405 484 l 374 484 b 374 484 183 254 86 254 b 3 254 364 717 683 717 b 933 717 679 325 467 291 l 669 619 l 570 619 l 137 -88 b 227 -88 247 -149 342 -149 b 645 -149 762 206 502 268 b 801 334 1078 749 705 749 z m 342 -111 b 296 -111 267 -84 250 -62 l 436 240 b 639 209 485 -111 342 -111 z"},"K":{"x_min":0,"x_max":821,"ha":821,"o":"m 971 749 b 878 749 656 557 516 401 b 592 531 656 650 656 676 b 657 716 637 749 571 749 b 114 749 -149 233 90 233 b 227 233 419 484 419 484 l 388 484 b 388 484 198 254 101 254 b 18 254 287 717 546 717 b 570 717 578 704 578 687 b 578 630 177 0 177 0 l 275 0 b 275 0 311 58 362 141 b 363 144 364 146 366 148 b 411 219 516 314 552 314 b 560 314 564 310 564 300 b 564 267 371 0 371 -72 b 371 -112 390 -145 457 -145 b 539 -145 605 -52 635 0 l 604 0 b 576 -44 525 -113 481 -113 b 458 -113 449 -100 449 -83 b 449 -46 666 261 666 310 b 666 333 654 360 613 360 b 586 360 553 353 522 343 b 636 465 913 677 988 677 b 1007 677 1007 669 1012 669 b 1032 669 1018 749 971 749 z"},"R":{"x_min":0,"x_max":819,"ha":819,"o":"m 704 749 b 205 749 -165 233 75 233 b 212 233 404 484 404 484 l 372 484 b 372 484 182 254 85 254 b 2 254 363 717 681 717 b 966 717 703 355 487 256 b 468 251 450 244 433 238 l 668 619 l 569 619 l 149 -65 l 247 -65 l 340 88 b 391 153 475 224 506 224 b 514 224 518 220 518 210 b 518 177 379 0 379 -72 b 378 -112 397 -145 464 -145 b 546 -145 612 -52 642 0 l 611 0 b 583 -44 532 -113 489 -113 b 465 -113 457 -100 457 -83 b 457 -46 620 171 620 220 b 620 237 613 257 593 266 b 863 410 1083 749 704 749 z"},"T":{"x_min":0,"x_max":830,"ha":830,"o":"m 1028 561 b 791 561 575 750 320 750 b 103 750 -2 622 -4 508 b -5 412 66 324 205 324 b 306 324 353 399 338 399 b 322 399 306 361 226 361 b 107 361 53 430 56 505 b 59 595 145 694 300 694 b 443 694 562 627 681 568 l 285 -75 l 383 -75 l 757 531 b 828 500 900 477 978 477 z"},"P":{"x_min":0,"x_max":796,"ha":796,"o":"m 704 749 b 205 749 -165 233 75 233 b 212 233 404 484 404 484 l 372 484 b 372 484 182 254 85 254 b 2 254 363 717 681 717 b 993 717 630 247 408 196 l 668 619 l 569 619 l 149 -65 l 247 -65 l 388 164 b 712 199 1170 749 704 749 z"},"|":{"x_min":0,"x_max":218,"ha":218,"o":"m 140 -124 l 140 684 l 78 684 l 78 -124 z"},"t":{"x_min":0,"x_max":265,"ha":265,"o":"m 256 734 b 248 723 196 638 129 529 l 33 529 b 22 511 12 493 2 476 l 96 476 b 18 349 -72 202 -132 104 b -158 61 -149 -1 -97 -1 b 17 -1 265 278 265 278 l 265 318 b 265 318 17 53 -44 53 b -52 53 -62 60 -50 80 b -4 156 102 327 193 476 l 293 476 b 303 493 313 511 323 529 l 226 529 b 291 635 344 720 353 734 z"},"M":{"x_min":0,"x_max":1041,"ha":1041,"o":"m 700 -116 b 677 -116 668 -103 668 -86 b 669 -41 1113 618 1113 711 b 1113 738 1096 749 1073 749 b 1027 749 911 633 799 505 b 855 604 895 686 895 711 b 895 738 878 749 855 749 b 807 749 681 621 565 486 b 617 580 656 656 656 676 b 657 716 637 749 571 749 b 114 749 -149 233 90 233 b 227 233 419 484 419 484 l 388 484 b 388 484 198 254 101 254 b 18 254 287 717 546 717 b 570 717 578 704 578 687 b 578 630 177 0 177 0 l 275 0 b 275 0 382 172 483 343 b 607 494 780 674 796 674 b 819 674 399 0 399 0 l 497 0 b 497 0 612 184 719 366 b 841 511 999 674 1014 674 b 1057 674 591 11 590 -75 b 590 -115 609 -149 676 -149 b 758 -149 825 -52 855 0 l 824 0 b 796 -44 744 -116 700 -116 z"},"g":{"x_min":0,"x_max":463,"ha":463,"o":"m 123 26 b 238 199 344 390 344 390 l 259 390 b 258 415 251 446 220 446 b 86 446 -133 205 -133 91 b -133 14 -91 1 -75 1 b -24 1 51 77 109 146 b 65 77 17 5 -28 -54 b -149 -107 -208 -108 -208 -182 b -208 -219 -181 -250 -127 -250 b -80 -250 7 -144 93 -18 b 203 40 333 127 463 278 l 463 318 b 329 174 216 85 123 26 z m -4 87 b -108 87 153 418 221 418 b 231 418 234 405 234 390 b 234 368 218 337 196 302 b 160 251 41 87 -4 87 z m -167 -188 b -173 -188 -176 -182 -176 -174 b -176 -141 -129 -121 -54 -88 b -102 -147 -143 -188 -167 -188 z"},"j":{"x_min":0,"x_max":290,"ha":290,"o":"m 213 536 b 277 536 394 716 313 716 b 226 716 140 536 213 536 z m -59 22 b 74 217 204 445 204 445 l 118 445 l 0 318 l 0 278 l 50 332 b -18 223 -123 58 -210 -57 b -329 -107 -388 -109 -388 -182 b -388 -220 -361 -250 -307 -250 b -263 -250 -177 -148 -89 -22 b 24 37 158 125 290 278 l 290 318 b 153 171 37 81 -59 22 z m -347 -188 b -353 -188 -356 -183 -356 -174 b -356 -142 -310 -122 -236 -90 b -284 -149 -324 -188 -347 -188 z"},"i":{"x_min":0,"x_max":266,"ha":266,"o":"m 189 536 b 253 536 370 715 289 715 b 202 715 116 536 189 536 z m -41 54 b -49 54 -63 58 -51 77 b 54 249 163 425 176 445 l 79 445 b 67 427 -41 252 -137 97 b -153 65 -155 0 -94 0 b 19 0 266 278 266 278 l 266 318 b 266 318 19 54 -41 54 z"},"y":{"x_min":0,"x_max":463,"ha":463,"o":"m 154 55 l 389 445 l 291 445 b 223 346 45 95 -20 95 b -25 95 -30 96 -30 104 b -30 114 -24 123 -24 123 b 81 295 162 425 175 445 l 78 445 b 66 427 -42 252 -138 96 b -159 62 -150 -1 -98 -1 b -43 -1 58 100 138 191 l -125 -250 l -28 -250 l 123 2 b 243 30 463 278 463 278 l 463 318 b 463 318 217 54 156 54 z"},"@":{"x_min":0,"x_max":770,"ha":770,"o":"m 439 530 b 143 530 -101 277 -101 85 b -101 -67 -5 -112 169 -112 l 169 -89 b 169 -89 164 -90 156 -90 b 116 -90 0 -77 0 72 b 0 257 232 507 436 507 b 502 507 593 473 593 347 b 593 221 456 32 341 32 b 332 32 327 35 327 45 b 327 75 471 284 525 367 l 445 367 b 444 390 438 419 408 419 b 281 419 74 192 74 83 b 74 11 112 -1 129 -1 b 163 -1 210 35 253 82 b 252 74 250 66 250 60 b 250 8 298 -1 315 -1 b 471 -1 685 197 685 338 b 685 464 591 530 439 530 z m 195 80 b 97 80 344 393 408 393 b 418 393 421 381 421 367 b 421 347 408 320 389 290 b 361 252 226 80 195 80 z"},".":{"x_min":0,"x_max":267,"ha":267,"o":"m -23 -3 b 41 -3 158 176 77 176 b -10 176 -95 -3 -23 -3 z"},"p":{"x_min":0,"x_max":475,"ha":475,"o":"m 220 96 b 302 178 365 294 365 368 b 365 409 336 445 303 445 b 236 445 173 414 128 371 l 171 445 l 73 445 l -331 -250 l -234 -250 l -36 90 b -32 37 4 0 41 0 b 77 0 116 15 153 40 b 297 46 475 278 475 278 l 475 318 b 475 318 334 140 220 96 z m 114 132 b 109 134 104 135 99 135 b 78 135 61 118 61 97 b 61 93 61 90 62 87 b 41 74 35 71 12 71 b -6 74 -13 87 -13 107 b -13 192 161 415 268 415 b 279 415 284 407 284 398 b 284 360 195 216 114 132 z"},"X":{"x_min":0,"x_max":561,"ha":561,"o":"m 290 60 b 270 60 251 64 251 137 b 251 192 260 271 270 354 l 544 739 l 502 739 l 278 425 b 289 513 299 598 299 655 b 299 723 275 749 231 749 b 105 749 -13 583 -13 583 l 2 571 b 2 571 86 684 183 684 b 202 684 207 665 207 653 b 206 605 181 410 167 270 l -131 -149 l -89 -149 l 161 202 b 160 179 159 160 159 146 b 158 45 181 0 224 0 b 350 0 561 278 561 278 l 561 318 b 561 318 351 60 290 60 z"},"*":{"x_min":0,"x_max":327,"ha":327,"o":"m 355 565 l 238 520 b 271 572 291 604 291 604 l 246 604 b 246 604 225 570 190 515 l 160 579 l 126 563 l 159 489 l 9 431 l 20 399 l 150 449 b 125 409 96 362 66 312 l 107 312 b 135 356 161 398 185 435 l 213 373 l 248 389 l 210 472 l 366 532 z"},"Y":{"x_min":0,"x_max":834,"ha":834,"o":"m 611 344 b 544 264 364 54 330 54 b 322 54 312 61 324 81 b 324 81 656 613 656 676 b 657 716 638 749 571 749 b 114 749 -149 233 90 233 b 227 233 419 484 419 484 l 388 484 b 388 484 198 254 101 254 b 18 254 288 717 546 717 b 570 717 578 704 578 687 b 578 630 241 104 241 104 b 215 62 225 0 277 0 b 339 0 424 76 495 156 l 270 -210 l 368 -210 l 916 679 l 818 679 z"},"c":{"x_min":0,"x_max":378,"ha":378,"o":"m 43 58 b -71 58 142 405 230 405 b 267 405 182 277 182 277 l 249 277 b 249 277 355 445 244 445 b 59 445 -92 238 -92 111 b -92 34 -47 0 13 0 b 200 0 378 278 378 278 l 378 318 b 378 318 206 58 43 58 z"},"!":{"x_min":0,"x_max":267,"ha":267,"o":"m 68 223 l 122 223 l 469 750 l 371 750 z m -23 -3 b 41 -3 158 176 77 176 b -10 176 -95 -3 -23 -3 z"},"/":{"x_min":0,"x_max":310,"ha":310,"o":"m -62 -91 l 416 684 l 349 684 l -129 -91 z"},"[":{"x_min":0,"x_max":324,"ha":324,"o":"m 582 794 b 594 812 607 833 619 853 l 401 853 l -180 -99 l 42 -99 b 55 -81 67 -60 80 -40 l -55 -40 l 445 794 z"},"6":{"x_min":0,"x_max":532,"ha":532,"o":"m 471 592 b 223 592 0 258 0 118 b 0 49 36 0 125 0 b 315 0 488 178 488 287 b 488 336 453 371 371 371 b 251 371 137 266 137 266 b 154 359 297 536 432 536 b 441 536 445 532 445 525 b 445 496 393 429 393 402 b 393 390 401 385 412 385 b 442 385 495 416 495 430 b 495 435 491 435 491 443 b 491 457 562 592 471 592 z m 314 313 b 372 313 384 278 384 245 b 384 145 250 50 185 50 b 127 50 116 82 116 115 b 116 202 188 313 314 313 z"},"r":{"x_min":0,"x_max":301,"ha":301,"o":"m 34 55 b 6 55 186 370 186 370 b 147 370 108 397 103 430 b 103 433 103 436 102 438 b 102 479 121 509 138 527 b 151 540 132 557 116 557 l 114 557 b 50 551 -1 474 -1 427 b -1 393 25 384 45 372 b 22 343 0 318 0 318 l 0 278 b 0 278 36 322 64 357 b 69 351 72 344 72 335 b 72 299 -70 122 -70 66 b -70 10 -37 1 -19 1 b 95 1 301 278 301 278 l 301 318 b 301 318 95 55 34 55 z"},"2":{"x_min":0,"x_max":482,"ha":482,"o":"m 97 428 b 97 401 135 374 154 374 b 161 374 166 377 166 385 b 166 484 256 564 316 564 b 347 564 369 544 369 496 b 369 356 -29 136 -95 62 b -101 55 -102 40 -95 34 b -84 24 -63 13 -21 13 b 49 13 45 23 167 23 b 290 23 283 -15 302 -15 b 328 -15 418 124 269 124 b 175 124 73 80 19 80 l 320 313 b 320 313 497 438 497 527 b 497 582 455 607 391 607 b 235 607 97 493 97 428 z"},"{":{"x_min":0,"x_max":311,"ha":311,"o":"m 543 804 b 225 804 265 406 28 376 b 19 375 2 369 4 353 b 26 210 -114 41 -114 -59 b -114 -136 -71 -172 -27 -188 l -14 -166 b -14 -166 -55 -158 -55 -102 b -55 13 86 141 86 275 b 86 313 63 344 63 344 b 339 344 326 792 543 792 z"},"9":{"x_min":0,"x_max":599,"ha":599,"o":"m 419 592 b 229 592 56 414 57 305 b 57 257 91 222 174 222 b 293 222 408 326 408 326 b 390 233 248 57 113 57 b 72 57 42 68 42 133 b 42 155 50 175 58 189 b 63 198 62 203 58 203 b 55 203 50 201 43 197 b 13 179 -27 144 -27 91 b -27 44 22 0 95 0 b 330 0 544 334 544 474 b 544 543 509 592 419 592 z m 230 279 b 172 279 161 315 161 347 b 161 447 295 543 360 543 b 418 543 429 510 429 478 b 429 391 356 279 230 279 z"}," ":{"x_min":0,"x_max":239,"ha":239,"o":""},"I":{"x_min":0,"x_max":539,"ha":539,"o":"m 383 750 b 59 750 -110 234 79 234 b 216 234 340 484 340 484 l 308 484 b 308 484 186 254 89 254 b 6 254 208 717 358 717 b 405 717 432 686 432 636 b 432 380 123 -17 -2 -17 l -12 -40 b 266 -40 525 404 526 595 b 526 696 475 750 383 750 z"},"H":{"x_min":0,"x_max":783,"ha":783,"o":"m 489 -113 b 465 -113 457 -100 457 -83 b 457 -37 864 604 864 604 l 766 604 b 766 604 684 473 596 326 l 472 326 b 565 483 656 645 656 676 b 657 716 637 750 571 750 b 114 750 -149 233 90 233 b 227 233 419 484 419 484 l 388 484 b 388 484 198 254 101 254 b 18 254 287 717 546 717 b 570 717 578 704 578 687 b 578 659 479 489 380 326 l 334 326 b 323 308 313 290 303 273 l 347 273 b 258 127 177 0 177 0 l 275 0 b 275 0 354 128 441 273 l 564 273 b 470 115 379 -45 379 -72 b 378 -112 398 -145 464 -145 b 546 -145 612 -52 642 0 l 611 0 b 583 -44 532 -113 489 -113 z"},"4":{"x_min":0,"x_max":517,"ha":517,"o":"m 373 279 b 362 279 351 278 340 277 b 433 431 547 584 547 598 b 547 604 543 608 534 608 b 407 608 -14 294 -14 205 b -14 172 46 168 69 168 b 124 168 135 174 190 177 b 174 143 164 112 164 87 b 164 15 210 -15 223 -15 b 236 -15 225 -5 225 8 b 225 49 249 111 285 178 b 394 175 388 140 407 140 b 435 140 529 279 373 279 z m 95 231 b 87 231 86 238 86 244 b 86 298 366 506 410 502 b 410 489 310 373 237 259 b 180 246 127 231 95 231 z"},"~":{"x_min":0,"x_max":421,"ha":421,"o":"m 166 624 b 131 624 87 600 76 565 b 73 557 75 552 81 552 b 83 552 85 553 88 555 b 102 562 117 565 131 565 b 166 565 203 550 242 550 b 252 550 263 551 274 553 b 302 561 323 578 335 608 b 340 618 337 622 331 622 b 329 622 326 622 323 620 b 304 611 287 608 271 608 b 233 608 201 624 166 624 z"},"D":{"x_min":0,"x_max":934,"ha":934,"o":"m 675 749 b 243 749 -169 233 71 233 b 208 233 400 484 400 484 l 368 484 b 368 484 178 254 81 254 b -2 254 394 717 652 717 b 1091 717 500 -111 281 -111 b 252 -111 235 -104 226 -95 l 605 521 l 507 521 l 116 -114 b 207 -114 186 -149 281 -149 b 627 -149 1239 749 675 749 z"},"0":{"x_min":0,"x_max":558,"ha":558,"o":"m 430 592 b 242 592 0 332 0 123 b 0 46 37 0 103 0 b 298 0 560 276 560 471 b 560 539 506 592 430 592 z m 131 36 b 109 36 94 52 94 78 b 94 263 330 554 414 554 b 443 554 460 534 460 504 b 460 370 229 36 131 36 z"},"F":{"x_min":0,"x_max":830,"ha":830,"o":"m 1028 561 b 791 561 575 750 320 750 b 103 750 -2 622 -4 508 b -5 412 66 324 205 324 b 306 324 353 399 338 399 b 322 399 306 360 226 360 b 107 360 53 430 56 505 b 59 595 145 694 300 694 b 443 694 562 627 681 567 l 528 318 l 388 318 b 378 300 368 283 358 265 l 495 265 l 285 -75 l 383 -75 l 593 265 l 716 265 b 726 283 736 300 747 318 l 626 318 l 757 531 b 828 500 900 477 978 477 z"},"`":{"x_min":0,"x_max":365,"ha":365,"o":"m 239 500 b 243 499 246 498 248 498 b 257 498 261 506 255 519 b 238 559 206 625 178 625 b 149 625 124 603 124 573 b 124 547 198 515 239 500 z"},"k":{"x_min":0,"x_max":438,"ha":438,"o":"m 95 43 b 57 43 78 157 85 193 b 347 226 403 446 279 446 b 232 446 182 418 138 385 b 247 560 347 722 355 735 l 258 735 b 246 716 -73 200 -196 0 l -99 0 b -76 37 -46 86 -13 141 b -20 83 -15 1 70 1 b 186 1 438 278 438 278 l 438 318 b 438 318 196 43 95 43 z m 241 386 b 286 386 177 226 30 210 b 53 247 77 286 101 325 b 141 356 193 386 241 386 z"},"u":{"x_min":0,"x_max":482,"ha":482,"o":"m 175 54 b 167 54 154 58 165 77 b 271 249 380 425 393 445 l 295 445 b 295 445 67 96 -19 96 b -24 96 -29 97 -29 105 b -29 115 -24 123 -24 123 b 82 295 162 425 175 445 l 78 445 b 66 427 -41 252 -137 97 b -159 62 -150 0 -97 0 b -42 0 58 100 138 191 b 119 160 99 128 80 97 b 63 65 61 0 122 0 b 236 0 482 278 482 278 l 482 318 b 482 318 235 54 175 54 z"},"]":{"x_min":0,"x_max":324,"ha":324,"o":"m -282 -40 b -295 -59 -307 -79 -320 -99 l -101 -99 l 479 853 l 257 853 b 245 834 232 814 220 794 l 355 794 l -145 -40 z"},"U":{"x_min":0,"x_max":918,"ha":918,"o":"m 822 684 b 822 684 693 475 572 279 b 504 200 325 -11 290 -11 b 282 -11 272 -4 284 16 b 284 16 656 613 656 676 b 657 716 637 749 571 749 b 114 749 -149 233 90 233 b 227 233 419 484 419 484 l 388 484 b 388 484 198 254 101 254 b 18 254 287 717 546 717 b 570 717 578 704 578 687 b 578 630 201 39 201 39 b 175 -3 185 -65 237 -65 b 299 -65 384 11 456 91 b 444 73 434 55 424 39 b 398 -3 407 -65 459 -65 b 605 -65 918 278 918 278 l 918 318 b 918 318 600 -11 512 -11 b 504 -11 495 -4 506 16 b 589 151 901 657 920 684 z"},"o":{"x_min":0,"x_max":420,"ha":420,"o":"m 247 216 b 272 255 288 294 288 326 b 288 390 260 410 232 410 b 190 410 154 363 169 363 b 175 363 182 374 190 374 b 194 374 199 370 199 358 b 199 324 181 280 155 235 b 134 234 117 217 117 196 b 117 190 119 185 121 180 b 76 115 24 62 3 62 b -9 62 -17 68 -17 94 b -17 218 164 443 253 443 b 261 443 259 459 240 459 b 111 459 -122 235 -122 96 b -122 20 -69 0 -35 0 b 29 0 131 74 203 158 b 250 165 339 189 420 278 l 420 318 b 367 257 301 229 247 216 z"},"N":{"x_min":0,"x_max":849,"ha":849,"o":"m 483 -116 b 459 -116 451 -103 451 -86 b 451 -41 895 618 895 711 b 895 738 878 749 855 749 b 807 749 681 621 565 486 b 617 580 656 656 656 676 b 657 716 637 749 571 749 b 114 749 -149 233 90 233 b 227 233 419 484 419 484 l 388 484 b 388 484 198 254 101 254 b 18 254 287 717 546 717 b 570 717 578 704 578 687 b 578 630 177 0 177 0 l 275 0 b 275 0 382 172 483 343 b 607 494 780 674 796 674 b 839 674 373 11 373 -75 b 372 -115 391 -149 458 -149 b 540 -149 607 -52 637 0 l 606 0 b 578 -44 526 -116 483 -116 z"},"+":{"x_min":0,"x_max":492,"ha":492,"o":"m 220 317 l 41 317 b 30 299 20 282 10 264 l 187 264 l 77 86 l 145 86 l 255 264 l 434 264 b 444 281 454 299 464 317 l 288 317 l 396 492 l 328 492 z"},"G":{"x_min":0,"x_max":621,"ha":621,"o":"m 516 318 l 417 318 l 361 227 b 302 162 203 61 157 61 b 114 61 105 97 105 120 b 105 173 141 250 195 331 b 446 336 669 605 669 690 b 669 723 655 750 604 750 b 514 750 313 598 168 428 b 165 435 164 444 164 452 b 164 573 377 690 377 690 l 366 707 b 366 707 108 569 108 432 b 108 406 114 387 123 372 b 51 277 0 180 0 104 b 0 36 39 0 81 0 b 147 0 228 59 294 118 l 129 -148 l 227 -148 l 294 -40 b 407 38 621 278 621 278 l 621 318 b 621 318 508 192 354 58 z m 609 720 b 634 720 635 704 635 690 b 635 586 415 401 238 390 b 361 556 537 720 609 720 z"},"q":{"x_min":0,"x_max":451,"ha":451,"o":"m 143 54 l 342 389 l 257 389 b 256 414 249 445 218 445 b 84 445 -135 204 -135 90 b -135 13 -93 0 -77 0 b -27 0 46 73 104 141 b -2 -39 -135 -250 -135 -250 l -37 -250 l 113 3 b 234 32 451 278 451 278 l 451 318 b 451 318 205 54 144 54 z m -6 86 b -111 86 151 417 219 417 b 229 417 231 404 231 389 b 231 378 218 347 195 304 b 159 257 24 86 -6 86 z"},"d":{"x_min":0,"x_max":463,"ha":463,"o":"m 156 54 b 132 54 480 640 541 734 l 443 734 l 254 417 b 249 433 239 445 220 445 b 85 445 -134 204 -134 90 b -134 13 -92 0 -75 0 b -39 0 10 39 57 88 b 54 79 52 72 52 65 b 52 9 85 0 103 0 b 217 0 463 278 463 278 l 463 318 b 463 318 217 54 156 54 z m -4 86 b -109 86 153 417 220 417 b 230 417 233 404 233 389 b 233 329 55 86 -4 86 z"},"1":{"x_min":0,"x_max":308,"ha":308,"o":"m 62 8 b 62 159 389 581 389 604 b 389 607 387 608 382 608 b 346 608 176 527 176 469 b 176 464 179 460 183 460 b 193 460 223 477 237 478 b 242 478 247 477 247 472 b 247 472 0 208 0 87 b 0 15 46 -16 59 -16 b 73 -16 62 -5 62 8 z"},"5":{"x_min":0,"x_max":505,"ha":505,"o":"m 86 -5 b 389 -5 577 389 340 389 b 231 389 175 358 175 358 b 222 456 318 520 386 520 b 465 520 460 490 475 490 b 495 490 564 597 450 597 b 378 597 300 564 258 564 b 220 485 92 388 92 306 b 92 290 96 280 99 273 b 102 269 105 267 108 267 b 111 267 115 268 118 271 b 142 293 211 349 274 349 b 474 349 273 36 130 36 b 79 36 38 69 38 151 b 38 178 48 203 57 221 b 64 232 63 238 57 238 b 53 238 47 236 39 231 b 2 208 -49 164 -49 98 b -49 51 -6 -5 86 -5 z"}}}
